<svg width="200" height="358" xmlns="http://www.w3.org/2000/svg" xmlns:xlink="http://www.w3.org/1999/xlink">
 <defs>
  <linearGradient id="imagebot_65">
   <stop stop-color="#fbffff" offset="0" id="imagebot_84"/>
   <stop stop-color="#fbffff" stop-opacity="0" offset="1" id="imagebot_83"/>
  </linearGradient>
  <linearGradient id="imagebot_70">
   <stop stop-color="#eeeeec" offset="0" id="imagebot_82"/>
   <stop stop-color="#eeeeec" stop-opacity="0" offset="1" id="imagebot_81"/>
  </linearGradient>
  <linearGradient x1="1.00011" y1="0.92831" x2="0.28897" y2="0.50135" id="imagebot_43">
   <stop stop-color="#eeeeec" offset="0" id="imagebot_80"/>
   <stop stop-color="#eeeeec" stop-opacity="0" offset="1" id="imagebot_79"/>
  </linearGradient>
  <linearGradient x1="0.3312" y1="-0.07392" x2="0.50004" y2="0.7526" id="imagebot_41">
   <stop stop-color="#eeeeec" offset="0" id="imagebot_78"/>
   <stop stop-color="#eeeeec" stop-opacity="0" offset="1" id="imagebot_77"/>
  </linearGradient>
  <linearGradient x1="0.00008" y1="0.50044" x2="1.00009" y2="0.50044" id="imagebot_39">
   <stop stop-color="#eeeeec" offset="0" id="imagebot_76"/>
   <stop stop-color="#eeeeec" stop-opacity="0" offset="1" id="imagebot_75"/>
  </linearGradient>
  <linearGradient x1="0.00012" y1="0.50069" x2="0.99443" xlink:href="#imagebot_70" y2="0.50069" id="imagebot_37"/>
  <linearGradient x1="0.93981" y1="0.63855" x2="0.0814" xlink:href="#imagebot_70" y2="0.49958" id="imagebot_35"/>
  <linearGradient x1="0.0925" y1="0.50111" x2="0.50025" y2="0.59268" id="imagebot_33">
   <stop stop-color="#eeeeec" offset="0" id="imagebot_74"/>
   <stop stop-color="#eeeeec" stop-opacity="0" offset="1" id="imagebot_73"/>
  </linearGradient>
  <linearGradient x1="0.07739" y1="0.64727" x2="1.00016" y2="0.64727" id="imagebot_28">
   <stop stop-color="#915c12" offset="0" id="imagebot_72"/>
   <stop stop-color="#915c12" stop-opacity="0" offset="1" id="imagebot_71"/>
  </linearGradient>
  <linearGradient x1="0.50039" y1="-0.00066" x2="0.50039" xlink:href="#imagebot_70" y2="0.99978" id="imagebot_63"/>
  <linearGradient x1="0.49985" y1="0.28263" x2="0.59738" y2="1.04231" id="imagebot_26">
   <stop stop-color="#6d4834" offset="0" id="imagebot_69"/>
   <stop stop-color="#6d4834" stop-opacity="0" offset="1" id="imagebot_68"/>
  </linearGradient>
  <linearGradient x1="0.48065" y1="0.36671" x2="0.50002" y2="1.74471" id="imagebot_16">
   <stop stop-color="#fbffff" offset="0" id="imagebot_67"/>
   <stop stop-color="#fbffff" stop-opacity="0" offset="1" id="imagebot_66"/>
  </linearGradient>
  <linearGradient x1="0.49997" y1="1.34268" x2="0.38473" xlink:href="#imagebot_65" y2="-0.45339" id="imagebot_14"/>
  <linearGradient x1="0.49813" y1="1.30662" x2="0.38331" xlink:href="#imagebot_65" y2="-0.31597" id="imagebot_12"/>
  <linearGradient x1="0.44693" y1="1.35406" x2="0.31364" xlink:href="#imagebot_65" y2="-0.50166" id="imagebot_10"/>
  <linearGradient x1="0.44714" y1="1.32917" x2="0.31398" xlink:href="#imagebot_65" y2="-0.3518" id="imagebot_8"/>
 </defs>
 <g label="Capa 1" id="imagebot_2">
  <path transform="translate(1.493, -0.820007) matrix(1, 0, 0, 1, -31.451, -450.15)" label="Capa 1" fill-rule="evenodd" stroke="#000000" stroke-width="1.6766px" fill="#a46d4e" d="M51.652,564.23999C50.523,564.52999 40.96,558.77999 37.401,561.30999C32.747,564.60999 29.958,577.28999 34.886,580.16999C43.357,585.11999 40.138,610.79999 49.137,619.56999C50.561,620.95999 53.498,622.15999 55.424,621.66999C56.615,614.17999 64.31,606.85999 62.55,598.60999C60.873,598.18999 52.2,564.10999 51.652,564.23999z" id="imagebot_64"/>
  <path transform="translate(1.493, -0.820007) matrix(1, 0, 0, 1, -31.451, -450.15)" label="Capa 1" fill="url(#imagebot_63)" d="M40.775,569.21997C38.342,565.88997 34.998,571.16997 34.998,568.53997C34.998,565.91997 37.838,562.25997 41.965,562.25997C46.091,562.25997 49.44,564.38997 49.44,567.00997C49.44,569.63997 45.242,575.33997 40.775,569.21997z" id="imagebot_62"/>
  <path transform="translate(1.493, -0.820007) matrix(1, 0, 0, 1, -31.451, -450.15)" label="Capa 1" fill-rule="evenodd" stroke="#000000" stroke-width="1.6766px" fill="#99684a" d="M208.59,551.25C209.72,551.53 219.28,545.79 222.84,548.32C227.49,551.62 230.28,564.3 225.35,567.18C216.88,572.13 220.1,597.8 211.1,606.58C209.68,607.96 206.74,609.16 204.82,608.67C203.63,601.19 195.93,593.86 197.69,585.62C199.37,585.2 208.04,551.11 208.59,551.25z" id="imagebot_61"/>
  <path transform="translate(1.493, -0.820007) matrix(1, 0, 0, 1, -31.451, -450.15)" label="Capa 1" fill-rule="evenodd" stroke="#000000" stroke-width="1.6766px" fill="#a46d4e" d="M49.853,502.33 C37.879,533.35 54.258,580.05 61.169,612.57 C64.361,627.58 68.09,648.76 77.097,661.19 C85.7,673.06 103.29,683.74 116.5,690.11 C124.71,694.07 136.74,698.73 145.84,698.07 C155.27,697.39 170.26,693.82 174.76,685.5 C184.37,667.7 196.97,647.98 202,630.17 C204.58,621.06 202.98,608 204.93,598.74 C209.27,589.71 211.02,585.68 205.77,577.78 C203.89,568.57 212.98,556.57 212.48,547.18 C211.78,534.08 204.82,517.26 198.65,505.69 C193.04,495.17 184.06,481.15 174.34,474.25 C162.99,466.2 144.23,460.3 130.33,459.58 C116.95,458.88 98.65,463.1 86.737,469.22 C73.51,476.02 55.209,488.46 49.853,502.33 L49.853,502.33 z" id="imagebot_60"/>
  <path transform="translate(1.493, -0.820007) matrix(1, 0, 0, 1, -31.451, -450.15)" label="Capa 1" fill-rule="evenodd" stroke="#000000" stroke-width="1.6766px" fill="#2e3436" d="M130.35001,450.98999C93.152,451.17999 58.21901,474.15999 45.36501,510.60999C41.74701,526.29999 38.27601,549.42999 44.52701,564.25999C47.01301,570.16999 46.79001,576.40999 56.68201,579.76999L57.52001,553.78999S76.70701,548.29999 76.80001,542.04999C76.87101,537.34999 65.79801,507.30999 65.79801,507.30999C73.82001,499.13999 79.44401,498.05999 88.53601,493.42999C113.05001,490.76999 142.79001,499.11999 167.33001,487.97999C173.36001,488.82999 180.20001,495.28999 183.26001,500.55999C186.20001,505.60999 186.20001,517.73999 186.20001,519.83999C186.20001,521.92999 200.03001,534.50999 201.70001,538.27999C203.38001,542.04999 195.70001,564.01999 203.80001,565.93999C209.51001,567.28999 212.76001,554.93999 213.86001,549.17999C215.75001,539.28999 211.44001,525.65999 208.41001,516.05999C198.12001,485.25999 178.73001,462.11999 146.38001,452.34999C141.03001,451.41999 135.66001,450.96999 130.35001,450.98999z" id="imagebot_59"/>
  <path transform="translate(1.493, -0.820007) matrix(1, 0, 0, 1, -31.451, -450.15)" label="Capa 1" fill-rule="evenodd" fill="#000000" d="M76.381,570.10999L92.309,555.01999L126.68,551.66999L125.42,560.88999L106.55999,560.88999L86.021,567.17999L81.83,570.52999L76.381,570.10999z" id="imagebot_58"/>
  <path transform="translate(1.493, -0.820007) matrix(1, 0, 0, 1, -31.451, -450.15)" label="Capa 1" fill-rule="evenodd" fill="#000000" d="M153.5,547.90002L154.76,556.28002L179.49,554.60002L191.23,559.63002L194.16,559.63002L178.65,544.96002L153.5,547.90002z" id="imagebot_57"/>
  <path transform="translate(1.493, -0.820007) matrix(1, 0, 0, 1, -31.451, -450.15)" label="Capa 1" stroke="#000000" stroke-width="1.6766px" fill="none" d="M120.6,568.84998C116.86,567.47998 111.18,566.33998 107.28,566.88998C94.704,570.01998 86.586,573.76998 75.124,579.95998" id="imagebot_56"/>
  <path transform="translate(1.493, -0.820007) matrix(1, 0, 0, 1, -31.451, -450.15)" label="Capa 1" stroke="#000000" stroke-width="1.6766px" fill="none" d="M120.9,569.34003C110.84,571.66003 103.14,574.82003 87.908,573.04003" id="imagebot_55"/>
  <path transform="translate(1.493, -0.820007) matrix(1, 0, 0, 1, -31.451, -450.15)" label="Capa 1" fill="#000000" d="M108.66,571.15997C108.66,573.93997 105.37,573.87997 100.8,573.87997C96.227,573.87997 92.309,574.76997 92.309,571.99997C92.309,569.21997 99.999,567.38997 104.57,567.38997C109.14,567.38997 108.66,568.37997 108.66,571.15997z" id="imagebot_54"/>
  <path transform="translate(1.493, -0.820007) matrix(1, 0, 0, 1, -31.451, -450.15)" label="Capa 1" stroke="#000000" stroke-width="1.6766px" fill="none" d="M123.95,572.14001L114.46,578.37001L104.09,579.85001L88.677,577.18001" id="imagebot_53"/>
  <path transform="translate(1.493, -0.820007) matrix(1, 0, 0, 1, -31.451, -450.15)" label="Capa 1" fill-rule="evenodd" stroke="#000000" stroke-width="1.6766px" fill="#2e3436" d="M115.65,566.51001L121.87,569.48001L123.95,573.63001L127.21,573.92001L126.61,564.14001L121.58,565.92001L115.65,566.51001z" id="imagebot_52"/>
  <path transform="translate(1.493, -0.820007) matrix(1, 0, 0, 1, -31.451, -450.15)" label="Capa 1" fill-rule="evenodd" fill="#000000" d="M119.24,593.45001L104.67,602.20001L104.31,613.72001L104.25,613.78001L96.919,623.83001L98.229,624.78001L105.67,614.72001L105.72,614.61001L105.77,614.51001L109.55,604.66001L120.34,594.70001L119.24,593.45001z" id="imagebot_51"/>
  <path transform="translate(1.493, -0.820007) matrix(1, 0, 0, 1, -31.451, -450.15)" label="Capa 1" stroke="#000000" stroke-width="1.6766px" fill="none" d="M96.383,629.94C97.272,632.9 100.19,645.16 102.9,651.28C105.08,656.2 112.09,666.69 112.09,666.69" id="imagebot_50"/>
  <path transform="translate(1.493, -0.820007) matrix(1, 0, 0, 1, -31.451, -450.15)" label="Capa 1" stroke="#000000" stroke-width="1.6766px" fill="none" d="M76.909,613.97998C76.28,618.93998 111.2,683.57998 111.2,683.57998" id="imagebot_49"/>
  <path transform="translate(1.493, -0.820007) matrix(1, 0, 0, 1, -31.451, -450.15)" label="Capa 1" fill-rule="evenodd" fill="#000000" d="M159.58,590.35999L158.85,591.87999S164.48,594.78999 170.69,598.89999C176.89,602.99999 183.61,608.38999 185.72,612.82999C186.34,614.11999 186.49,617.07999 186.2,620.63999C185.9,624.19999 185.25,628.38999 184.47,632.36999C182.9,640.33998 180.96,647.51998 180.96,647.51998L182.53,647.93998S184.51,640.72998 186.09,632.68998C186.88,628.66998 187.57,624.45999 187.87,620.79998C188.18,617.12998 189.23,612.59998 188.29,610.62998C185.83,605.45998 177.87,601.63998 171.58,597.47998S159.58,590.35998 159.58,590.35998z" id="imagebot_48"/>
  <path transform="translate(1.493, -0.820007) matrix(1, 0, 0, 1, -31.451, -450.15)" label="Capa 1" stroke="#000000" stroke-width="1.6766px" fill="none" d="M76.526,589.03998L86.01,581.03998" id="imagebot_47"/>
  <path transform="translate(1.493, -0.820007) matrix(1, 0, 0, 1, -31.451, -450.15)" label="Capa 1" fill-rule="evenodd" stroke="#000000" stroke-width="1.6766px" fill="#eeeeec" d="M156.44,564.65997L165.24,559.62997L179.07,559.62997L190.39,564.23997L182.57,564.43997L156.44,564.65997z" id="imagebot_46"/>
  <path transform="translate(1.493, -0.820007) matrix(1, 0, 0, 1, -31.451, -450.15)" label="Capa 1" fill="#000000" d="M175.3,562.78003C175.3,565.55003 172.01,565.50003 167.44,565.50003S158.95,566.39003 158.95,563.61003C158.95,560.84003 166.64,559.00003 171.21,559.00003S175.3,560.00003 175.3,562.78003z" id="imagebot_45"/>
  <path transform="translate(1.493, -0.820007) matrix(1, 0, 0, 1, -31.451, -450.15)" label="Capa 1" stroke="#000000" stroke-width="1.6766px" fill="none" d="M157.28,570.95001L177.81,573.46001" id="imagebot_44"/>
  <path transform="translate(1.493, -0.820007) matrix(1, 0, 0, 1, -31.451, -450.15)" label="Capa 1" fill-rule="evenodd" fill="url(#imagebot_43)" d="M70.304,528.62C72.031,531.73 73.274,537.81999 74.492,541.14999C74.876,543.57999 72.763,545.41 70.58,545.87999C67.058,547.28999 63.227,548.46999 59.397,547.91999C56.242,541.60999 67.895,535.57999 70.304,528.62z" id="imagebot_42"/>
  <path transform="translate(1.493, -0.820007) matrix(1, 0, 0, 1, -31.451, -450.15)" label="Capa 1" fill-rule="evenodd" fill="url(#imagebot_41)" d="M130.35001,455.17999C93.152,455.36999 58.21901,478.34999 45.36501,514.80999C45.34901,514.86999 45.32801,514.94999 45.31201,515.01999C61.98401,481.26 97.51701,496.79999 130.46001,479.87999C136.28001,476.88999 151.63001,464.31999 157.49001,465.33999C169.10001,468.84999 173.29001,470.33999 182.00001,476.76999C172.45001,467.73999 160.65001,460.85999 146.38001,456.55C141.03001,455.62 135.66001,455.16 130.35001,455.18z" id="imagebot_40"/>
  <path transform="translate(1.493, -0.820007) matrix(1, 0, 0, 1, -31.451, -450.15)" label="Capa 1" fill-rule="evenodd" fill="url(#imagebot_39)" d="M71.784,507.82999C73.147,502.42999 86.496,498.57999 88.381,499.52999C96.334,503.56999 80.572,515.91999 84.232,528.57999C88.025,541.68999 94.29,543.73999 91.938,549.31999C89.195,555.82999 79.142,559.26999 74.155,564.73999C69.544,569.78999 77.76,549.04999 77.711,542.20998C77.637,531.73998 70.024,514.79998 71.784,507.82998z" id="imagebot_38"/>
  <path transform="translate(1.493, -0.820007) matrix(1, 0, 0, 1, -31.451, -450.15)" label="Capa 1" fill="url(#imagebot_37)" d="M79.849,604.03998C74.036,608.28998 83.245,614.11998 78.664,614.11998S67.698,609.16998 67.698,601.96998S71.416,588.92998 75.996,588.92998C80.577,588.92998 90.519,596.24998 79.849,604.03998z" id="imagebot_36"/>
  <path transform="translate(1.493, -0.820007) matrix(1, 0, 0, 1, -31.451, -450.15)" label="Capa 1" fill="url(#imagebot_35)" d="M187.89,592.08002C194.46,589.14002 187.59,574.36002 191.78,576.21002S199.82,585.17002 196.91,591.75002C194.01,598.34002 188.25,602.19002 184.06,600.34002S178.24,596.39002 187.89,592.08002z" id="imagebot_34"/>
  <path transform="translate(1.493, -0.820007) matrix(1, 0, 0, 1, -31.451, -450.15)" label="Capa 1" fill="url(#imagebot_33)" d="M147.06,598.37C147.06,603.04 142.75,606.81999 137.43,606.81999S127.8,603.03999 127.8,598.37C127.8,593.71 131.82,584.3 137.14,584.3C142.45,584.3 147.06,593.71 147.06,598.37z" id="imagebot_32"/>
  <path transform="translate(1.493, -0.820007) matrix(1, 0, 0, 1, -31.451, -450.15)" label="Capa 1" opacity="0.89437" fill="#ffffff" d="M106.4,568.19C106.11,568.19 105.44,568.44 105.2,568.56C105.94,568.77 106.51,569.42 106.51,570.24C106.51,570.93 106.1,571.57 105.51,571.86C105.67,571.91 106.23,571.91 106.4,571.91C107.38,571.91 107.76,571.11 107.76,570.13S107.38,568.19 106.4,568.19z" id="imagebot_31"/>
  <path transform="translate(1.493, -0.820007) matrix(1, 0, 0, 1, -31.451, -450.15)" label="Capa 1" opacity="0.89437" fill="#ffffff" d="M173.09,560.48999C172.8,560.48999 172.12,560.72999 171.88,560.85999C172.63,561.06999 173.19,561.71999 173.19,562.52999C173.19,563.22999 172.78,563.85999 172.2,564.15999C172.35,564.19999 172.92,564.20999 173.09,564.20999C174.07,564.20999 174.45,563.40999 174.45,562.42999S174.07,560.48999 173.09,560.48999z" id="imagebot_30"/>
  <path transform="translate(1.493, -0.820007) matrix(1, 0, 0, 1, -31.451, -450.15)" label="Capa 1" fill-rule="evenodd" stroke="#000000" stroke-width="1.6766px" fill="#eeeeec" d="M107.35,567.54999L108.98,570.21999L108.68,572.13999L120.09,569.47999L113.28,566.65999L108.24,566.95999L107.35,567.54999z" id="imagebot_29"/>
  <path transform="translate(1.493, -0.820007) matrix(1, 0, 0, 1, -31.451, -450.15)" label="Capa 1" fill-rule="evenodd" fill="url(#imagebot_28)" d="M136.67999,613.48999L148.00999,614.24999L149.63999,624.73999S143.49999,630.78999 142.30999,629.00999C141.71999,628.11999 134.62999,628.98999 134.21999,625.94999C133.81999,622.90999 136.52999,614.07999 136.67999,613.48999z" id="imagebot_27"/>
  <path transform="translate(1.493, -0.820007) matrix(1, 0, 0, 1, -31.451, -450.15)" label="Capa 1" opacity="0.89437" fill="url(#imagebot_26)" d="M129.60001,652.28003L131.69001,664.72003C138.13001,668.65003 152.59001,672.54003 162.29001,663.60003L163.13001,650.49003L148.67001,654.66003L129.60001,652.28003z" id="imagebot_25"/>
  <path transform="translate(1.493, -0.820007) matrix(1, 0, 0, 1, -31.451, -450.15)" label="Capa 1" stroke="#000000" stroke-width="1.6766px" fill="none" d="M115.65,600.89001S114.19,606.79001 115.35,608.90001C115.95,609.98001 117.7,610.71001 118.91,610.97001C122.49,611.75001 127.54,608.78001 131.06,609.78001C133.32,610.43001 135.09,613.70001 137.28,614.53001C139.79,615.47001 143.61,615.87001 146.17,615.12001C149.54,613.99001 150.73,611.63001 151.81,608.60001C153.2,607.07001 156,606.01001 158.03,605.64001C160.14,605.25001 163.44,607.53001 165.14,606.23001C166.72,605.02001 166.72,601.66001 166.33,599.71001C165.78,597.00001 161.29,592.00001 161.29,592.00001" id="imagebot_24"/>
  <path transform="translate(1.493, -0.820007) matrix(1, 0, 0, 1, -31.451, -450.15)" label="Capa 1" fill-rule="evenodd" fill="#000000" d="M53.371,579.83002S46.808,572.69002 44.002,574.35002C42.037,575.50002 43.532,591.23002 44.679,593.20002C45.612,594.80002 45.549,578.20002 46.732,579.63002C48.497,581.76002 52.664,593.79002 52.664,593.79002L50.543,596.97002L52.664,604.40002L58.144,602.45002L53.371,579.83002z" id="imagebot_23"/>
  <path transform="translate(1.493, -0.820007) matrix(1, 0, 0, 1, -31.451, -450.15)" label="Capa 1" fill-rule="evenodd" fill="#000000" d="M210.07001,561.33002S216.63001,554.19002 219.44001,555.85002C221.40001,557.00002 219.91001,572.73002 218.76001,574.70002C217.83001,576.30002 217.89001,559.70002 216.71001,561.13002C214.94001,563.26002 210.78001,575.29002 210.78001,575.29002L212.90001,578.47002L210.78001,585.90002S208.29001,582.65002 207.30001,581.20002C203.31001,575.37002 210.07001,561.33002 210.07001,561.33002z" id="imagebot_22"/>
  <path transform="translate(1.493, -0.820007) matrix(1, 0, 0, 1, -31.451, -450.15)" label="Capa 1" stroke="#000000" stroke-width="1px" fill="none" d="M201.05,809.32001z" id="imagebot_21"/>
  <g label="Capa 1" transform="translate(1.493, -0.820007) matrix(1, 0, 0, 1, -33.2188, -541.72)" id="imagebot_4">
   <path fill-rule="evenodd" fill="#000000" d="M129.53,703.02002L128.56,703.05002L110.06,703.55002L109.93,703.55002L109.84,703.58002L106.36,705.46002L99.965,704.55002L99.809,704.52002L99.652,704.55002L84.152,709.55002L83.402,709.80002L83.934,710.39002L93.309,718.77002L99.746,719.52002L105.03,719.89002L112.84,718.33002L121.34,714.71002L121.43,714.64002L121.46,714.58002L128.96,703.83002L129.53,703.02002z" transform="matrix(1.6766 0 0 1.6766 -32.141 -463.81)" id="imagebot_20"/>
   <path fill-rule="evenodd" fill="#910000" d="M90.69,715.14001L103.49,716.12001L112.12,714.62001L122.09,709.71001L121.24,712.37001L112.74,717.50002L103.12,719.25002L93.492,717.87002L90.69,715.14002z" transform="matrix(1.6766 0 0 1.6766 -32.141 -463.81)" id="imagebot_19"/>
   <path fill-rule="evenodd" fill="#830000" d="M87.202,709.40002L99.894,704.69002L105.95,706.01002L111.41,703.42002L124.02,703.38002L123.71,704.44002L110.14,706.57002L101.64,707.82002L87.358,709.49002L87.202,709.40002z" transform="matrix(1.6766 0 0 1.6766 -32.141 -463.81)" id="imagebot_18"/>
   <path stroke="#000000" stroke-width="1px" fill="none" d="M163.614,729.25 z" id="imagebot_17"/>
   <g id="imagebot_5">
    <g id="imagebot_6">
     <path fill="url(#imagebot_16)" d="M169.37,719.31C168.5,719.55 167.32,719.79 165.96,720.04C165.91,720.21 165.91,720.39 165.93,720.57L166.19,725.22C166.25,726.19 167.07,726.9 168.04,726.81L168.31,726.78C168.76,726.73 169.16,726.51 169.45,726.19C169.63,725.19 169.77,724.42 169.89,723.69L169.69,720.22C169.68,720.1 169.66,719.98 169.63,719.87L169.6,719.75C169.54,719.59 169.47,719.45 169.37,719.31zM164.83999,720.28C163.85999,720.45 162.76999,720.61 161.62999,720.78C161.31999,721.19 161.12999,721.7 161.15999,722.25L161.51999,728.04C161.58999,729.26 162.61999,730.13 163.83999,730.01L163.89999,730.01C165.10999,729.89 166.01999,728.82 165.95999,727.6L165.62999,721.81C165.59999,721.17 165.28999,720.64 164.83999,720.28zM159.12999,721.16C157.96999,721.33 156.67999,721.49 155.42999,721.66C154.77999,722.21 154.36999,723.05 154.42999,723.95L154.89999,731.01C154.95999,731.89 155.43999,732.66 156.13999,733.1C157.86999,732.63 159.51999,732.07 161.07999,731.45C161.17999,731.13 161.24999,730.8 161.21999,730.45L160.74999,723.4C160.67999,722.35 160.02999,721.53 159.12999,721.16zM152.30999,722.07C150.55999,722.3 148.82999,722.5 147.01999,722.72C146.45999,723.28 146.12999,724.07 146.19999,724.92L146.78999,732.39C146.85999,733.37 147.40999,734.2 148.19999,734.66C150.14999,734.41 152.05999,734.04 153.89999,733.63C154.25999,733.11 154.44999,732.48 154.39999,731.8L153.83999,724.37C153.76999,723.35 153.14999,722.51 152.30999,722.07zM144.43999,723.04C142.32999,723.3 140.32999,723.54 138.31999,723.78C137.95999,724.29 137.76999,724.92 137.81999,725.6L138.37999,733.04C138.44999,733.94 138.94999,734.72 139.63999,735.18C141.36999,735.19 143.09999,735.11 144.81999,734.98C145.58999,734.43 146.06999,733.51 145.98999,732.48L145.43999,725.01C145.36999,724.21 144.99999,723.51 144.43999,723.04zM136.66999,723.95C135.03999,724.15 133.52999,724.33 132.05999,724.51C131.77999,724.98 131.60999,725.53 131.64999,726.1L132.08999,733.19C132.12999,733.84 132.37999,734.41 132.78999,734.83C134.02999,734.97 135.28999,735.04 136.55999,735.1C137.34999,734.56 137.84999,733.63 137.78999,732.63L137.34999,725.57C137.30999,724.94 137.05999,724.38 136.66999,723.95zM130.87999,724.66C129.36999,724.85 127.84999,725.05 126.61999,725.22C126.47999,725.54 126.38999,725.88 126.40999,726.25L126.76999,732.04C126.83999,733.26 127.89999,734.15 129.11999,734.04L129.55999,733.98C130.77999,733.87 131.68999,732.79 131.61999,731.57L131.26999,725.78C131.23999,725.36 131.09999,724.97 130.87999,724.66zM125.79999,725.34C123.57999,725.65 121.97,725.9 121.35999,726.1L121.35999,726.13C121.33999,726.26 121.34999,726.4 121.35999,726.54L121.67999,731.86L121.70999,732.07C121.84999,732.23 121.99999,732.38 122.17999,732.45C123.16999,732.82 124.19999,733.13 125.26999,733.42C125.96999,733.05 126.43999,732.29 126.38999,731.45L126.02999,726.13C126.00999,725.84 125.91999,725.58 125.79999,725.34z" id="imagebot_15"/>
     <path fill="url(#imagebot_14)" d="M153.73,731.91998C153.73,732.83998 152.54,733.58998 151.07,733.58998S148.41,732.83998 148.41,731.91998S150.39,732.89998 151.44,731.86998C154.79,728.61998 153.73,730.99998 153.73,731.91998z" id="imagebot_13"/>
     <path fill="url(#imagebot_12)" d="M145.35001,732.54999C145.35001,733.46999 144.16001,734.21999 142.69001,734.21999C141.23001,734.21999 140.03001,733.46999 140.03001,732.54999C140.03001,731.61999 142.02001,733.51999 143.07001,732.49999C146.41001,729.24999 145.35001,731.61999 145.35001,732.54999z" id="imagebot_11"/>
     <path fill="url(#imagebot_10)" d="M161.23,730.16998C161.23,731.08998 160.04,731.83998 158.57,731.83998S156.53,731.33998 156.53,730.41998S157.96,731.20998 158.94,730.11998C161.66,727.11998 161.23,729.24998 161.23,730.16998z" id="imagebot_9"/>
     <path fill="url(#imagebot_8)" d="M137.69,733.10999C137.69,733.92999 136.63,734.58999 135.33,734.58999C134.04,734.58999 133.53,734.14999 133.53,733.32999C133.53,732.51999 134.79,734.03999 135.67,733.06999C138.07,730.41999 137.69,732.29999 137.69,733.10999z" id="imagebot_7"/>
    </g>
   </g>
  </g>
  <path transform="translate(1.493, -0.820007) matrix(1, 0, 0, 1, -31.451, -450.15)" label="Capa 1" fill-rule="evenodd" stroke="#000000" stroke-width="1.6766px" fill="#2e3436" d="M154.48,551.90002L153.89,561.68002L156.98,561.40002L157.48,552.97002L154.48,551.90002z" id="imagebot_3"/>
  <title>Capa 1</title>
 </g>
 <metadata>image/svg+xmlOpenclipartBarack Obama2008-11-05T22:38:55Barack Obama, president of USA. Need some improvment..https://openclipart.org/detail/19983/barack-obama-by-rg1024rg1024barackeditorial pickfacemanobamapeoplepresidents</metadata>
</svg>