<svg id="logo" width="50" height="50" viewBox="0 0 1094 111" fill="none" xmlns="http://www.w3.org/2000/svg">
    <mask id="path-1-outside-1" maskUnits="userSpaceOnUse" x="0.944" y="0.76001" width="1093" height="110" fill="black">
    <rect fill="white" x="0.944" y="0.76001" width="1093" height="110"/>
    <path d="M53.768 5.20001C69.992 5.20001 82.952 8.70401 92.648 15.712C102.44 22.72 107.336 33.568 107.336 48.256V62.944C107.336 77.92 102.488 88.864 92.792 95.776C83.192 102.592 70.184 106 53.768 106H7.832C6.776 106 5.864 105.616 5.096 104.848C4.328 104.08 3.944 103.168 3.944 102.112V9.08801C3.944 8.03201 4.328 7.12001 5.096 6.35201C5.864 5.58401 6.776 5.20001 7.832 5.20001H53.768ZM54.488 77.92C59 77.92 62.552 76.864 65.144 74.752C67.832 72.544 69.176 69.472 69.176 65.536V45.664C69.176 41.728 67.832 38.704 65.144 36.592C62.552 34.384 59 33.28 54.488 33.28H41.384V77.92H54.488Z"/>
    <path d="M223.2 77.92C224.256 77.92 225.168 78.304 225.936 79.072C226.704 79.84 227.088 80.752 227.088 81.808V102.112C227.088 103.168 226.704 104.08 225.936 104.848C225.168 105.616 224.256 106 223.2 106H132.192C131.136 106 130.224 105.616 129.456 104.848C128.688 104.08 128.304 103.168 128.304 102.112V9.08801C128.304 8.03201 128.688 7.12001 129.456 6.35201C130.224 5.58401 131.136 5.20001 132.192 5.20001H221.76C222.816 5.20001 223.728 5.58401 224.496 6.35201C225.264 7.12001 225.648 8.03201 225.648 9.08801V29.392C225.648 30.448 225.264 31.36 224.496 32.128C223.728 32.896 222.816 33.28 221.76 33.28H165.744V42.352H213.84C214.896 42.352 215.808 42.736 216.576 43.504C217.344 44.272 217.728 45.184 217.728 46.24V64.96C217.728 66.016 217.344 66.928 216.576 67.696C215.808 68.464 214.896 68.848 213.84 68.848H165.744V77.92H223.2Z"/>
    <path d="M352.312 5.20001C353.176 5.20001 353.895 5.53601 354.471 6.20801C355.143 6.78401 355.479 7.50401 355.479 8.36801L355.336 9.37601L322.216 101.248C321.736 102.592 320.967 103.744 319.911 104.704C318.855 105.568 317.463 106 315.736 106H282.184C280.456 106 279.064 105.568 278.008 104.704C276.952 103.744 276.232 102.736 275.848 101.68L242.439 9.37601L242.296 8.36801C242.296 7.50401 242.584 6.78401 243.16 6.20801C243.832 5.53601 244.6 5.20001 245.464 5.20001H275.848C277.576 5.20001 278.968 5.72801 280.023 6.78401C281.176 7.74401 281.944 8.80001 282.328 9.95201L298.888 65.104L315.448 9.95201C315.832 8.70401 316.552 7.60001 317.608 6.64001C318.664 5.68001 320.103 5.20001 321.927 5.20001H352.312Z"/>
    <path d="M467.887 77.92C468.943 77.92 469.855 78.304 470.623 79.072C471.391 79.84 471.775 80.752 471.775 81.808V102.112C471.775 103.168 471.391 104.08 470.623 104.848C469.855 105.616 468.943 106 467.887 106H376.879C375.823 106 374.911 105.616 374.143 104.848C373.375 104.08 372.991 103.168 372.991 102.112V9.08801C372.991 8.03201 373.375 7.12001 374.143 6.35201C374.911 5.58401 375.823 5.20001 376.879 5.20001H466.447C467.503 5.20001 468.415 5.58401 469.183 6.35201C469.951 7.12001 470.335 8.03201 470.335 9.08801V29.392C470.335 30.448 469.951 31.36 469.183 32.128C468.415 32.896 467.503 33.28 466.447 33.28H410.431V42.352H458.527C459.583 42.352 460.495 42.736 461.263 43.504C462.031 44.272 462.415 45.184 462.415 46.24V64.96C462.415 66.016 462.031 66.928 461.263 67.696C460.495 68.464 459.583 68.848 458.527 68.848H410.431V77.92H467.887Z"/>
    <path d="M590.519 76.48C591.575 76.48 592.487 76.864 593.255 77.632C594.023 78.4 594.407 79.312 594.407 80.368V102.112C594.407 103.168 594.023 104.08 593.255 104.848C592.487 105.616 591.575 106 590.519 106H506.423C505.367 106 504.455 105.616 503.687 104.848C502.919 104.08 502.535 103.168 502.535 102.112V9.08801C502.535 8.03201 502.919 7.12001 503.687 6.35201C504.455 5.58401 505.367 5.20001 506.423 5.20001H537.527C538.583 5.20001 539.495 5.58401 540.263 6.35201C541.031 7.12001 541.415 8.03201 541.415 9.08801V76.48H590.519Z"/>
    <path d="M719.487 64.384C719.487 79.072 714.591 89.92 704.799 96.928C695.103 103.936 682.143 107.44 665.919 107.44C649.695 107.44 636.687 103.936 626.895 96.928C617.199 89.92 612.351 78.976 612.351 64.096V47.104C612.351 37.312 614.655 29.2 619.263 22.768C623.967 16.24 630.351 11.44 638.415 8.36801C646.479 5.29601 655.647 3.76001 665.919 3.76001C676.191 3.76001 685.311 5.29601 693.279 8.36801C701.343 11.44 707.727 16.192 712.431 22.624C717.135 29.056 719.487 37.12 719.487 46.816V64.384ZM651.231 67.12C651.231 71.056 652.527 74.08 655.119 76.192C657.807 78.304 661.407 79.36 665.919 79.36C670.431 79.36 673.983 78.304 676.575 76.192C679.263 73.984 680.607 70.912 680.607 66.976V44.224C680.607 40.288 679.263 37.264 676.575 35.152C673.983 32.944 670.431 31.84 665.919 31.84C661.407 31.84 657.807 32.896 655.119 35.008C652.527 37.12 651.231 40.144 651.231 44.08V67.12Z"/>
    <path d="M802.95 5.20001C811.974 5.20001 819.847 6.73601 826.567 9.80801C833.287 12.88 838.423 17.056 841.975 22.336C845.527 27.616 847.303 33.52 847.303 40.048C847.303 50.8 843.943 59.248 837.223 65.392C830.503 71.44 819.078 74.464 802.95 74.464H783.943V102.112C783.943 103.168 783.559 104.08 782.791 104.848C782.023 105.616 781.11 106 780.054 106H749.095C748.039 106 747.127 105.616 746.359 104.848C745.591 104.08 745.206 103.168 745.206 102.112V9.08801C745.206 8.03201 745.591 7.12001 746.359 6.35201C747.127 5.58401 748.039 5.20001 749.095 5.20001H802.95ZM802.375 47.824C804.679 47.824 806.502 47.152 807.846 45.808C809.19 44.368 809.862 42.496 809.862 40.192C809.862 37.792 809.19 35.824 807.846 34.288C806.502 32.752 804.679 31.984 802.375 31.984H784.086V47.824H802.375Z"/>
    <path d="M957.262 77.92C958.318 77.92 959.23 78.304 959.998 79.072C960.766 79.84 961.15 80.752 961.15 81.808V102.112C961.15 103.168 960.766 104.08 959.998 104.848C959.23 105.616 958.318 106 957.262 106H866.254C865.198 106 864.286 105.616 863.518 104.848C862.75 104.08 862.366 103.168 862.366 102.112V9.08801C862.366 8.03201 862.75 7.12001 863.518 6.35201C864.286 5.58401 865.198 5.20001 866.254 5.20001H955.822C956.878 5.20001 957.79 5.58401 958.558 6.35201C959.326 7.12001 959.71 8.03201 959.71 9.08801V29.392C959.71 30.448 959.326 31.36 958.558 32.128C957.79 32.896 956.878 33.28 955.822 33.28H899.806V42.352H947.902C948.958 42.352 949.87 42.736 950.638 43.504C951.406 44.272 951.79 45.184 951.79 46.24V64.96C951.79 66.016 951.406 66.928 950.638 67.696C949.87 68.464 948.958 68.848 947.902 68.848H899.806V77.92H957.262Z"/>
    <path d="M1090.12 101.536C1090.31 101.92 1090.41 102.352 1090.41 102.832C1090.41 103.696 1090.07 104.464 1089.4 105.136C1088.82 105.712 1088.1 106 1087.24 106H1054.55C1053.21 106 1051.96 105.664 1050.81 104.992C1049.75 104.32 1048.98 103.456 1048.5 102.4L1035.83 73.888H1023.73V102.112C1023.73 103.168 1023.35 104.08 1022.58 104.848C1021.81 105.616 1020.9 106 1019.85 106H988.742C987.686 106 986.774 105.616 986.006 104.848C985.238 104.08 984.854 103.168 984.854 102.112V9.08801C984.854 8.03201 985.238 7.12001 986.006 6.35201C986.774 5.58401 987.686 5.20001 988.742 5.20001H1044.76C1053.4 5.20001 1060.93 6.59201 1067.37 9.37601C1073.89 12.16 1078.89 16.192 1082.34 21.472C1085.8 26.752 1087.53 32.944 1087.53 40.048C1087.53 53.104 1082.49 62.56 1072.41 68.416L1090.12 101.536ZM1041.73 47.248C1043.85 47.248 1045.48 46.576 1046.63 45.232C1047.78 43.792 1048.36 42.016 1048.36 39.904C1048.36 37.792 1047.78 35.968 1046.63 34.432C1045.57 32.8 1043.94 31.984 1041.73 31.984H1023.73V47.248H1041.73Z"/>
    </mask>
    <path d="M53.768 5.20001C69.992 5.20001 82.952 8.70401 92.648 15.712C102.44 22.72 107.336 33.568 107.336 48.256V62.944C107.336 77.92 102.488 88.864 92.792 95.776C83.192 102.592 70.184 106 53.768 106H7.832C6.776 106 5.864 105.616 5.096 104.848C4.328 104.08 3.944 103.168 3.944 102.112V9.08801C3.944 8.03201 4.328 7.12001 5.096 6.35201C5.864 5.58401 6.776 5.20001 7.832 5.20001H53.768ZM54.488 77.92C59 77.92 62.552 76.864 65.144 74.752C67.832 72.544 69.176 69.472 69.176 65.536V45.664C69.176 41.728 67.832 38.704 65.144 36.592C62.552 34.384 59 33.28 54.488 33.28H41.384V77.92H54.488Z" stroke="white" stroke-width="6" mask="url(#path-1-outside-1)"/>
    <path d="M223.2 77.92C224.256 77.92 225.168 78.304 225.936 79.072C226.704 79.84 227.088 80.752 227.088 81.808V102.112C227.088 103.168 226.704 104.08 225.936 104.848C225.168 105.616 224.256 106 223.2 106H132.192C131.136 106 130.224 105.616 129.456 104.848C128.688 104.08 128.304 103.168 128.304 102.112V9.08801C128.304 8.03201 128.688 7.12001 129.456 6.35201C130.224 5.58401 131.136 5.20001 132.192 5.20001H221.76C222.816 5.20001 223.728 5.58401 224.496 6.35201C225.264 7.12001 225.648 8.03201 225.648 9.08801V29.392C225.648 30.448 225.264 31.36 224.496 32.128C223.728 32.896 222.816 33.28 221.76 33.28H165.744V42.352H213.84C214.896 42.352 215.808 42.736 216.576 43.504C217.344 44.272 217.728 45.184 217.728 46.24V64.96C217.728 66.016 217.344 66.928 216.576 67.696C215.808 68.464 214.896 68.848 213.84 68.848H165.744V77.92H223.2Z" stroke="white" stroke-width="6" mask="url(#path-1-outside-1)"/>
    <path d="M352.312 5.20001C353.176 5.20001 353.895 5.53601 354.471 6.20801C355.143 6.78401 355.479 7.50401 355.479 8.36801L355.336 9.37601L322.216 101.248C321.736 102.592 320.967 103.744 319.911 104.704C318.855 105.568 317.463 106 315.736 106H282.184C280.456 106 279.064 105.568 278.008 104.704C276.952 103.744 276.232 102.736 275.848 101.68L242.439 9.37601L242.296 8.36801C242.296 7.50401 242.584 6.78401 243.16 6.20801C243.832 5.53601 244.6 5.20001 245.464 5.20001H275.848C277.576 5.20001 278.968 5.72801 280.023 6.78401C281.176 7.74401 281.944 8.80001 282.328 9.95201L298.888 65.104L315.448 9.95201C315.832 8.70401 316.552 7.60001 317.608 6.64001C318.664 5.68001 320.103 5.20001 321.927 5.20001H352.312Z" stroke="white" stroke-width="6" mask="url(#path-1-outside-1)"/>
    <path d="M467.887 77.92C468.943 77.92 469.855 78.304 470.623 79.072C471.391 79.84 471.775 80.752 471.775 81.808V102.112C471.775 103.168 471.391 104.08 470.623 104.848C469.855 105.616 468.943 106 467.887 106H376.879C375.823 106 374.911 105.616 374.143 104.848C373.375 104.08 372.991 103.168 372.991 102.112V9.08801C372.991 8.03201 373.375 7.12001 374.143 6.35201C374.911 5.58401 375.823 5.20001 376.879 5.20001H466.447C467.503 5.20001 468.415 5.58401 469.183 6.35201C469.951 7.12001 470.335 8.03201 470.335 9.08801V29.392C470.335 30.448 469.951 31.36 469.183 32.128C468.415 32.896 467.503 33.28 466.447 33.28H410.431V42.352H458.527C459.583 42.352 460.495 42.736 461.263 43.504C462.031 44.272 462.415 45.184 462.415 46.24V64.96C462.415 66.016 462.031 66.928 461.263 67.696C460.495 68.464 459.583 68.848 458.527 68.848H410.431V77.92H467.887Z" stroke="white" stroke-width="6" mask="url(#path-1-outside-1)"/>
    <path d="M590.519 76.48C591.575 76.48 592.487 76.864 593.255 77.632C594.023 78.4 594.407 79.312 594.407 80.368V102.112C594.407 103.168 594.023 104.08 593.255 104.848C592.487 105.616 591.575 106 590.519 106H506.423C505.367 106 504.455 105.616 503.687 104.848C502.919 104.08 502.535 103.168 502.535 102.112V9.08801C502.535 8.03201 502.919 7.12001 503.687 6.35201C504.455 5.58401 505.367 5.20001 506.423 5.20001H537.527C538.583 5.20001 539.495 5.58401 540.263 6.35201C541.031 7.12001 541.415 8.03201 541.415 9.08801V76.48H590.519Z" stroke="white" stroke-width="6" mask="url(#path-1-outside-1)"/>
    <path d="M719.487 64.384C719.487 79.072 714.591 89.92 704.799 96.928C695.103 103.936 682.143 107.44 665.919 107.44C649.695 107.44 636.687 103.936 626.895 96.928C617.199 89.92 612.351 78.976 612.351 64.096V47.104C612.351 37.312 614.655 29.2 619.263 22.768C623.967 16.24 630.351 11.44 638.415 8.36801C646.479 5.29601 655.647 3.76001 665.919 3.76001C676.191 3.76001 685.311 5.29601 693.279 8.36801C701.343 11.44 707.727 16.192 712.431 22.624C717.135 29.056 719.487 37.12 719.487 46.816V64.384ZM651.231 67.12C651.231 71.056 652.527 74.08 655.119 76.192C657.807 78.304 661.407 79.36 665.919 79.36C670.431 79.36 673.983 78.304 676.575 76.192C679.263 73.984 680.607 70.912 680.607 66.976V44.224C680.607 40.288 679.263 37.264 676.575 35.152C673.983 32.944 670.431 31.84 665.919 31.84C661.407 31.84 657.807 32.896 655.119 35.008C652.527 37.12 651.231 40.144 651.231 44.08V67.12Z" stroke="white" stroke-width="6" mask="url(#path-1-outside-1)"/>
    <path d="M802.95 5.20001C811.974 5.20001 819.847 6.73601 826.567 9.80801C833.287 12.88 838.423 17.056 841.975 22.336C845.527 27.616 847.303 33.52 847.303 40.048C847.303 50.8 843.943 59.248 837.223 65.392C830.503 71.44 819.078 74.464 802.95 74.464H783.943V102.112C783.943 103.168 783.559 104.08 782.791 104.848C782.023 105.616 781.11 106 780.054 106H749.095C748.039 106 747.127 105.616 746.359 104.848C745.591 104.08 745.206 103.168 745.206 102.112V9.08801C745.206 8.03201 745.591 7.12001 746.359 6.35201C747.127 5.58401 748.039 5.20001 749.095 5.20001H802.95ZM802.375 47.824C804.679 47.824 806.502 47.152 807.846 45.808C809.19 44.368 809.862 42.496 809.862 40.192C809.862 37.792 809.19 35.824 807.846 34.288C806.502 32.752 804.679 31.984 802.375 31.984H784.086V47.824H802.375Z" stroke="white" stroke-width="6" mask="url(#path-1-outside-1)"/>
    <path d="M957.262 77.92C958.318 77.92 959.23 78.304 959.998 79.072C960.766 79.84 961.15 80.752 961.15 81.808V102.112C961.15 103.168 960.766 104.08 959.998 104.848C959.23 105.616 958.318 106 957.262 106H866.254C865.198 106 864.286 105.616 863.518 104.848C862.75 104.08 862.366 103.168 862.366 102.112V9.08801C862.366 8.03201 862.75 7.12001 863.518 6.35201C864.286 5.58401 865.198 5.20001 866.254 5.20001H955.822C956.878 5.20001 957.79 5.58401 958.558 6.35201C959.326 7.12001 959.71 8.03201 959.71 9.08801V29.392C959.71 30.448 959.326 31.36 958.558 32.128C957.79 32.896 956.878 33.28 955.822 33.28H899.806V42.352H947.902C948.958 42.352 949.87 42.736 950.638 43.504C951.406 44.272 951.79 45.184 951.79 46.24V64.96C951.79 66.016 951.406 66.928 950.638 67.696C949.87 68.464 948.958 68.848 947.902 68.848H899.806V77.92H957.262Z" stroke="white" stroke-width="6" mask="url(#path-1-outside-1)"/>
    <path d="M1090.12 101.536C1090.31 101.92 1090.41 102.352 1090.41 102.832C1090.41 103.696 1090.07 104.464 1089.4 105.136C1088.82 105.712 1088.1 106 1087.24 106H1054.55C1053.21 106 1051.96 105.664 1050.81 104.992C1049.75 104.32 1048.98 103.456 1048.5 102.4L1035.83 73.888H1023.73V102.112C1023.73 103.168 1023.35 104.08 1022.58 104.848C1021.81 105.616 1020.9 106 1019.85 106H988.742C987.686 106 986.774 105.616 986.006 104.848C985.238 104.08 984.854 103.168 984.854 102.112V9.08801C984.854 8.03201 985.238 7.12001 986.006 6.35201C986.774 5.58401 987.686 5.20001 988.742 5.20001H1044.76C1053.4 5.20001 1060.93 6.59201 1067.37 9.37601C1073.89 12.16 1078.89 16.192 1082.34 21.472C1085.8 26.752 1087.53 32.944 1087.53 40.048C1087.53 53.104 1082.49 62.56 1072.41 68.416L1090.12 101.536ZM1041.73 47.248C1043.85 47.248 1045.48 46.576 1046.63 45.232C1047.78 43.792 1048.36 42.016 1048.36 39.904C1048.36 37.792 1047.78 35.968 1046.63 34.432C1045.57 32.8 1043.94 31.984 1041.73 31.984H1023.73V47.248H1041.73Z" stroke="white" stroke-width="6" mask="url(#path-1-outside-1)"/>
    </svg>